<?xml version="1.0" encoding="utf-8"?>
<!-- Generator: Adobe Illustrator 24.1.1, SVG Export Plug-In . SVG Version: 6.00 Build 0)  -->
<svg version="1.1" id="Layer_1" xmlns="http://www.w3.org/2000/svg" xmlns:xlink="http://www.w3.org/1999/xlink" x="0px" y="0px"
	 viewBox="0 0 512 512" style="enable-background:new 0 0 512 512;" xml:space="preserve">
<style type="text/css">
	.st0{fill:#333333;}
</style>
<g id="XMLID_1_">
	<path id="XMLID_9_" class="st0" d="M255.6,146.5H109.1v-36.2h146.5V146.5z M109.1,256h256v-36.2h-256V256z M109.1,329.3h256V293
		h-256V329.3z M109.1,402.5h256v-36.2h-256V402.5z M475.4,128.4v347.4c0,20.5-16.5,36.2-36.2,36.2H72.9c-20.5,0-36.2-16.5-36.2-36.2
		V36.2C36.6,15.8,53.2,0,72.9,0H347L475.4,128.4z M438.4,146.5L328.9,36.2h-256V475h365.5V146.5z"/>
</g>
</svg>
