<?xml version="1.0" encoding="utf-8"?>
<!-- Generator: Adobe Illustrator 18.0.0, SVG Export Plug-In . SVG Version: 6.00 Build 0)  -->
<!DOCTYPE svg PUBLIC "-//W3C//DTD SVG 1.1//EN" "http://www.w3.org/Graphics/SVG/1.1/DTD/svg11.dtd">
<svg version="1.1" id="Layer_1" xmlns="http://www.w3.org/2000/svg" xmlns:xlink="http://www.w3.org/1999/xlink" x="0px" y="0px"
	 viewBox="0 0 64 64" enable-background="new 0 0 64 64" xml:space="preserve">
<g>
	<path d="M45.8,0H10C7.8,0,6,1.8,6,4v56c0,2.2,1.8,4,4,4h44c2.2,0,4-1.8,4-4V11.1L45.8,0z M47,6.5l3.8,3.5H47V6.5z M10,60V4h33v10
		h11l0,46H10z"/>
	<path d="M22.7,17.5c2.4,0,4.3-1.9,4.3-4.2S25,9,22.7,9s-4.3,1.9-4.3,4.2S20.3,17.5,22.7,17.5z M22.7,12c0.7,0,1.3,0.6,1.3,1.2
		s-0.6,1.2-1.3,1.2s-1.3-0.6-1.3-1.2S21.9,12,22.7,12z"/>
	<path d="M35.8,14.8l-6.7,8.5l-3.7-3.7l-10.5,13H49L35.8,14.8z M25.6,24l3.7,3.8l6.4-8l7.3,9.8H21.1L25.6,24z"/>
	<path d="M23.8,49.9h2.6c-0.1,0.5-0.3,1-0.7,1.3c-0.5,0.4-1.1,0.6-1.9,0.6c-0.6,0-1.1-0.1-1.4-0.4c-0.4-0.3-0.7-0.6-0.8-1
		c-0.2-0.4-0.3-0.8-0.4-1.2S21,48.5,21,48.1c0-0.3,0-0.8,0.1-1.2c0.1-0.5,0.2-0.9,0.4-1.3c0.2-0.4,0.5-0.8,0.8-1
		c0.4-0.3,0.8-0.4,1.4-0.4c0.7,0,1.3,0.1,1.7,0.4c0.4,0.3,0.7,0.7,1,1.2l2.8-0.6c-0.3-0.6-0.6-1.1-0.9-1.5c-0.3-0.4-0.8-0.7-1.2-0.9
		c-0.9-0.5-1.9-0.7-3-0.7c-1.1,0-2.1,0.2-2.9,0.5c-0.8,0.3-1.4,0.8-1.9,1.4c-0.5,0.6-0.8,1.2-1,2c-0.2,0.7-0.3,1.5-0.3,2.4
		c0,0.8,0.1,1.5,0.3,2.2c0.2,0.7,0.5,1.3,1,1.8c0.5,0.5,1.1,1,1.8,1.3c0.7,0.3,1.6,0.5,2.6,0.5c0.7,0,1.3-0.1,1.8-0.2
		c0.5-0.2,1-0.4,1.5-0.8v0.9h2.4v-6h-5.6V49.9z"/>
	<rect x="31.6" y="42.2" width="3" height="11.7"/>
	<polygon points="36.8,53.8 39.8,53.8 39.8,48.8 44.4,48.8 44.4,46.7 39.8,46.7 39.8,44.3 46,44.3 46,42.2 36.8,42.2 	"/>
</g>
</svg>
